<?xml version="1.0" encoding="utf-8"?>
<!-- Generator: Adobe Illustrator 17.0.0, SVG Export Plug-In . SVG Version: 6.00 Build 0)  -->
<!DOCTYPE svg PUBLIC "-//W3C//DTD SVG 1.1//EN" "http://www.w3.org/Graphics/SVG/1.1/DTD/svg11.dtd">
<svg version="1.1" id="Layer_1" xmlns="http://www.w3.org/2000/svg" xmlns:xlink="http://www.w3.org/1999/xlink" x="0px" y="0px"
	 width="612px" height="792px" viewBox="0 0 612 792" enable-background="new 0 0 612 792" xml:space="preserve">
<title>Extreme Sports - Solid - 016 - F1 Car</title>
<desc>Created with Sketch.</desc>
<g>
	<g>
		<path d="M601.8,434.25h-20.4v-71.4c-0.049-16.879-13.721-30.551-30.6-30.6H510v-20.4c-0.017-5.626-4.574-10.183-10.2-10.2H459
			c-5.626,0.017-10.183,4.574-10.2,10.2v20.4c0.031,4.372,2.808,8.251,6.936,9.69l1.53,0.51H438.6v-20.4
			c-0.017-5.626-4.574-10.183-10.2-10.2v-61.2c-0.017-5.626-4.574-10.183-10.2-10.2h-85.986c-0.823-1.422-1.743-2.785-2.754-4.08
			v-6.12H357c5.626-0.017,10.183-4.574,10.2-10.2v-25.5c-0.017-5.626-4.574-10.183-10.2-10.2H255
			c-5.626,0.017-10.183,4.574-10.2,10.2v25.5c0.017,5.626,4.574,10.183,10.2,10.2h28.56v4.998c-1.405,1.599-2.636,3.343-3.672,5.202
			H193.8c-5.626,0.017-10.183,4.574-10.2,10.2v61.2c-5.626,0.017-10.183,4.574-10.2,10.2v20.4h-18.666l1.53-0.51
			c4.128-1.439,6.905-5.318,6.936-9.69v-20.4c-0.017-5.626-4.574-10.183-10.2-10.2h-40.8c-5.626,0.017-10.183,4.574-10.2,10.2v20.4
			H61.2c-16.879,0.049-30.551,13.721-30.6,30.6v71.4H10.2c-5.626,0.017-10.183,4.574-10.2,10.2v71.4
			c0.017,5.626,4.574,10.183,10.2,10.2h591.6c5.626-0.017,10.183-4.574,10.2-10.2v-71.4
			C611.983,438.824,607.426,434.267,601.8,434.25L601.8,434.25z M547.842,376.008c3.978,4.009,3.978,10.475,0,14.484l-5.1,5.1
			c-6.051,6.074-15.633,6.811-22.542,1.734c-6.959,4.898-16.414,4.171-22.542-1.734l-5.1-5.1c-2.605-2.584-3.629-6.364-2.684-9.909
			c0.945-3.545,3.714-6.314,7.259-7.259c3.545-0.945,7.325,0.079,9.909,2.684l3.162,3.162c6.008-4.182,13.984-4.182,19.992,0
			l3.162-3.162C537.367,372.03,543.833,372.03,547.842,376.008z M397.8,311.85c-5.626,0.017-10.183,4.574-10.2,10.2v20.4h-33.15
			l-5.814-19.278c-1.492-4.979-3.877-9.644-7.038-13.77l-0.102-0.204l-0.204-2.448H408v5.1H397.8z M315.078,251.976v0.204
			c0.102,0.408,0.204,0.816,0.306,1.123v0.204l3.978,39.984c-8.7-2.72-18.024-2.72-26.724,0l3.876-39.78
			c0.102-0.102,0.102-0.102,0-0.204c0.088-0.555,0.224-1.101,0.408-1.632v-0.102c1.363-3.832,5.011-6.373,9.078-6.324
			C310.138,245.374,313.832,248.03,315.078,251.976L315.078,251.976z M408,260.85v25.5h-68.748l-2.652-25.5H408z M275.298,260.85
			l-2.55,25.5H204v-25.5H275.298z M204,306.75h66.708l-0.204,2.448l-0.102,0.204c-3.161,4.126-5.546,8.791-7.038,13.77
			l-5.814,19.278H224.4v-20.4c-0.017-5.626-4.574-10.183-10.2-10.2H204V306.75z M78.642,376.008l3.162,3.162
			c6.008-4.182,13.984-4.182,19.992,0l3.162-3.162c2.584-2.605,6.364-3.629,9.909-2.684c3.545,0.945,6.314,3.714,7.259,7.259
			c0.945,3.545-0.079,7.325-2.684,9.909l-5.1,5.1c-6.051,6.074-15.633,6.811-22.542,1.734c-6.959,4.898-16.414,4.171-22.542-1.734
			l-5.1-5.1c-2.605-2.584-3.629-6.364-2.684-9.909c0.945-3.545,3.714-6.314,7.259-7.259
			C72.278,372.379,76.058,373.403,78.642,376.008L78.642,376.008z M122.4,505.65h-102v-51h20.4v10.2
			c0.017,5.626,4.574,10.183,10.2,10.2h135.864l12.24,30.6H122.4z M365.976,475.05c0.815,7.316,1.223,14.671,1.224,22.032v8.568
			h-20.4v-8.568c0.012-16.296-2.149-32.521-6.426-48.246l-2.448,1.224c-20.094,10.064-43.758,10.064-63.852,0l-2.448-1.224
			c-4.277,15.725-6.438,31.95-6.426,48.246v8.568h-20.4v-8.568c0.001-7.361,0.409-14.716,1.224-22.032h-37.128l-3.06-7.548
			c-3.034-7.814-10.59-12.932-18.972-12.852h62.322c1.02-5.1,2.244-10.2,3.672-15.198l-5.1,0.714l-20.196,2.754l-3.876,0.51
			l-0.51,0.102l-6.528,0.918l-2.448,0.306l-61.2,8.568V432.72l33.558-4.692l-8.568-5.712c-2.857-1.87-4.582-5.052-4.59-8.466v-4.284
			l-20.4,2.958V391.92l20.4-2.958v-5.712c0.017-5.626,4.574-10.183,10.2-10.2H255v-10.2h20.4v65.076l7.752,3.876
			c14.395,7.14,31.301,7.14,45.696,0l7.752-3.876V362.85H357v10.2h71.4c5.626,0.017,10.183,4.574,10.2,10.2v5.712l20.4,2.958v20.604
			l-20.4-2.958v4.284c-0.008,3.414-1.733,6.596-4.59,8.466l-8.568,5.712L459,432.72v20.604l-61.2-8.568l-38.658-5.304
			c1.428,4.998,2.652,10.098,3.672,15.198h62.322c-8.382-0.08-15.938,5.038-18.972,12.852l-3.06,7.548H365.976z M591.6,505.65
			H412.896l12.24-30.6H561c5.626-0.017,10.183-4.574,10.2-10.2v-10.2h20.4V505.65z"/>
		<polygon points="418.2,408.342 418.2,393.45 357,393.45 357,418.542 395.046,423.846 		"/>
		<polygon points="193.8,408.342 216.954,423.846 255,418.542 255,393.45 193.8,393.45 		"/>
	</g>
</g>
</svg>
